<?xml version="1.0" standalone="no"?>
<!DOCTYPE svg PUBLIC "-//W3C//DTD SVG 20010904//EN"
 "http://www.w3.org/TR/2001/REC-SVG-20010904/DTD/svg10.dtd">
<svg version="1.0" xmlns="http://www.w3.org/2000/svg"
 width="500.000000pt" height="500.000000pt" viewBox="0 0 500.000000 500.000000"
 preserveAspectRatio="xMidYMid meet">

<g transform="translate(0.000000,500.000000) scale(0.100000,-0.100000)"
fill="#000000" stroke="none">
<path d="M2580 2750 c0 -5 -9 -10 -19 -10 -20 0 -74 -39 -54 -40 6 0 18 7 27
15 8 8 21 15 29 15 8 0 20 7 27 15 9 10 9 15 1 15 -6 0 -11 -4 -11 -10z"/>
<path d="M2526 2700 l-30 -19 29 3 c17 2 29 10 31 20 1 9 2 16 1 15 -1 0 -15
-9 -31 -19z"/>
<path d="M1036 2665 c-9 -9 -16 -22 -16 -30 0 -7 -6 -16 -12 -19 -10 -5 -10
-7 0 -12 7 -3 12 -25 12 -55 0 -42 3 -49 20 -49 17 0 20 7 20 44 0 25 5 48 10
51 6 4 10 -7 10 -24 0 -61 76 -95 118 -53 18 18 19 18 42 0 69 -56 163 31 98
92 -28 26 -72 26 -98 0 l-20 -20 -20 20 c-21 21 -65 26 -89 11 -17 -11 -53 -2
-48 13 2 6 10 11 18 11 8 0 14 7 14 15 0 21 -39 24 -59 5z m134 -80 c15 -18 3
-57 -17 -53 -26 5 -39 34 -24 52 17 20 25 20 41 1z m144 -7 c11 -18 -7 -48
-30 -48 -18 0 -28 38 -13 56 14 17 28 14 43 -8z"/>
<path d="M1460 2591 l0 -89 53 0 c31 0 58 6 68 14 14 13 17 13 22 0 5 -11 21
-15 62 -15 l55 1 0 48 c0 68 -36 96 -94 74 -29 -11 -19 -34 13 -28 16 4 32 1
35 -5 5 -7 -2 -11 -16 -11 -13 0 -29 -4 -37 -9 -11 -7 -19 -1 -30 22 -14 28
-21 32 -53 31 -35 -1 -38 1 -38 27 0 22 -5 29 -20 29 -18 0 -20 -7 -20 -89z
m94 -14 c16 -25 -16 -56 -38 -37 -19 15 -20 32 -4 48 15 15 28 11 42 -11z
m126 -27 c0 -13 -28 -25 -38 -16 -3 4 0 11 8 16 20 13 30 12 30 0z"/>
<path d="M1740 2590 c0 -83 1 -90 20 -90 19 0 20 7 20 90 0 83 -1 90 -20 90
-19 0 -20 -7 -20 -90z"/>
<path d="M1800 2590 c0 -83 1 -90 20 -90 19 0 20 7 20 90 0 83 -1 90 -20 90
-19 0 -20 -7 -20 -90z"/>
<path d="M2018 2673 c-1 -4 -3 -26 -2 -48 4 -128 3 -125 24 -125 20 0 21 5 18
87 -2 72 -6 88 -20 91 -9 2 -18 -1 -20 -5z"/>
<path d="M2220 2591 l0 -89 53 0 c62 0 87 18 87 63 0 43 -30 70 -70 62 -28 -6
-30 -5 -30 23 0 23 -4 30 -20 30 -18 0 -20 -7 -20 -89z m88 -3 c17 -17 15 -45
-5 -52 -24 -10 -46 21 -32 45 11 22 20 24 37 7z"/>
<path d="M2435 2598 c-28 -45 -52 -86 -54 -92 -2 -6 -9 -15 -15 -19 -7 -5 -3
-7 10 -4 15 3 20 -1 20 -19 0 -12 -3 -21 -7 -18 -4 2 -10 -6 -12 -18 l-4 -23
-2 23 c0 12 -7 22 -14 22 -17 0 -50 -57 -41 -72 4 -6 3 -8 -3 -5 -15 10 -65
-90 -58 -113 3 -11 19 -29 35 -40 24 -17 42 -20 137 -19 80 1 96 3 61 8 -52 8
-69 18 -49 30 10 6 10 10 2 16 -8 4 -12 39 -10 105 1 54 -2 103 -6 109 -3 7
-8 27 -11 46 -3 26 1 37 16 48 11 8 22 24 25 35 2 11 11 32 21 47 9 14 15 28
13 30 -3 2 -27 -32 -54 -77z m-38 -200 c-3 -8 -6 -5 -6 6 -1 11 2 17 5 13 3
-3 4 -12 1 -19z m-9 -26 c2 -7 -2 -10 -12 -6 -9 3 -16 11 -16 16 0 13 23 5 28
-10z m-71 -118 c2 -15 1 -16 -5 -3 -4 9 -15 15 -25 13 -9 -1 -15 1 -12 6 9 15
40 3 42 -16z"/>
<path d="M1880 2642 c-41 -41 -37 -94 9 -129 21 -17 73 -16 96 0 27 21 10 36
-34 30 -32 -4 -41 -2 -50 14 -24 45 26 92 70 65 13 -9 19 -8 23 5 9 22 -4 33
-47 40 -31 5 -40 1 -67 -25z"/>
<path d="M1371 2637 c-9 -22 1 -106 14 -128 10 -16 65 -11 65 6 0 8 -7 15 -15
15 -10 0 -15 11 -15 35 0 24 5 35 15 35 8 0 15 5 15 10 0 6 -6 10 -14 10 -7 0
-16 9 -19 20 -7 27 -35 25 -46 -3z"/>
<path d="M2070 2584 c0 -71 11 -83 75 -83 l55 1 0 64 c0 57 -2 64 -19 64 -16
0 -20 -8 -23 -42 -2 -35 -7 -43 -23 -43 -16 0 -21 8 -23 43 -3 34 -7 42 -23
42 -16 0 -19 -7 -19 -46z"/>
<path d="M2461 2554 c0 -11 3 -14 6 -6 3 7 2 16 -1 19 -3 4 -6 -2 -5 -13z"/>
<path d="M2426 2544 c-10 -25 1 -29 14 -5 6 12 7 21 1 21 -5 0 -12 -7 -15 -16z"/>
<path d="M2683 2475 c0 -8 4 -15 9 -15 4 0 8 4 8 9 0 6 -4 12 -8 15 -5 3 -9
-1 -9 -9z"/>
<path d="M2350 2466 c0 -9 30 -14 35 -6 4 6 -3 10 -14 10 -12 0 -21 -2 -21 -4z"/>
<path d="M2561 2434 c0 -11 3 -14 6 -6 3 7 2 16 -1 19 -3 4 -6 -2 -5 -13z"/>
<path d="M2562 2370 c0 -14 2 -19 5 -12 2 6 2 18 0 25 -3 6 -5 1 -5 -13z"/>
</g>
</svg>
